<?xml version="1.0" standalone="no"?>
<!DOCTYPE svg PUBLIC "-//W3C//DTD SVG 20010904//EN"
 "http://www.w3.org/TR/2001/REC-SVG-20010904/DTD/svg10.dtd">
<svg version="1.0" xmlns="http://www.w3.org/2000/svg"
 width="1536.000000pt" height="1166.000000pt" viewBox="0 0 1536.000000 1166.000000"
 preserveAspectRatio="xMidYMid meet">
<metadata>
Created by potrace 1.16, written by Peter Selinger 2001-2019
</metadata>
<g transform="translate(0.000000,1166.000000) scale(0.100000,-0.100000)"
fill="#000000" stroke="none">
<path d="M6365 11600 l-40 -59 -77 -1 c-43 0 -78 1 -78 3 0 1 7 24 15 51 8 27
13 51 11 54 -3 2 -41 -21 -84 -52 -44 -31 -83 -56 -86 -56 -3 0 -6 25 -6 55 0
30 -2 55 -5 55 -2 0 -39 -25 -81 -55 -57 -41 -86 -55 -111 -55 -25 0 -32 3
-27 13 4 6 18 29 32 50 13 22 22 40 20 42 -2 2 -43 -21 -92 -51 -71 -44 -96
-54 -131 -54 -33 0 -61 -10 -117 -43 -96 -57 -314 -177 -321 -177 -3 0 -7 15
-9 34 l-3 33 -99 -62 c-54 -35 -135 -93 -179 -129 -79 -65 -80 -66 -141 -66
-55 0 -68 -5 -139 -48 -42 -26 -101 -64 -130 -84 -28 -21 -66 -41 -84 -44
l-32 -6 6 37 6 38 -47 -28 c-26 -15 -49 -25 -52 -22 -3 3 -1 29 5 57 6 28 11
58 11 66 0 21 -132 -47 -197 -102 l-52 -44 -3 35 -3 35 -45 -40 c-25 -21 -49
-39 -55 -40 -5 0 -19 14 -30 30 -23 35 -35 38 -35 10 0 -13 -5 -18 -15 -14 -8
3 -30 -4 -50 -16 l-35 -22 0 49 -1 48 -28 -55 c-28 -53 -30 -55 -76 -60 -44
-5 -48 -7 -63 -45 -8 -22 -44 -90 -80 -151 l-64 -110 -105 1 c-101 1 -105 2
-120 26 -20 32 -97 78 -188 112 -113 42 -158 51 -198 38 -52 -18 -181 -117
-290 -224 l-98 -97 -69 6 c-52 5 -78 3 -109 -10 -51 -20 -51 -20 -51 0 0 19
-7 17 -146 -41 -56 -23 -124 -58 -151 -77 -26 -20 -127 -77 -225 -127 -181
-94 -191 -102 -269 -213 -3 -5 -88 -24 -189 -42 l-184 -34 -34 -41 c-34 -41
-34 -41 -104 -41 l-71 0 -146 -89 c-207 -126 -260 -151 -321 -151 -44 0 -56 5
-103 43 -69 56 -234 121 -272 107 -41 -16 -34 -66 27 -179 39 -73 67 -111 118
-158 37 -35 106 -116 154 -182 72 -99 97 -126 150 -159 75 -48 129 -118 155
-203 11 -32 17 -59 15 -59 -2 0 -27 9 -55 21 -33 12 -49 15 -42 7 5 -7 28 -36
50 -65 22 -28 57 -93 77 -145 21 -51 53 -118 71 -148 107 -178 132 -235 165
-370 32 -134 33 -136 21 -246 -31 -303 0 -414 134 -481 54 -27 125 -89 125
-110 0 -6 20 -81 45 -166 26 -90 51 -204 59 -273 42 -327 52 -729 22 -861 -9
-40 -16 -97 -16 -128 0 -49 5 -63 38 -110 32 -47 46 -58 102 -80 82 -31 120
-32 157 -1 25 21 37 23 133 23 100 0 107 1 155 31 36 22 54 41 63 67 12 33 16
35 57 35 42 0 45 2 172 138 71 75 134 149 140 163 15 35 140 142 203 174 28
14 50 23 50 19 0 -3 -9 -19 -21 -35 -11 -16 -33 -58 -50 -94 -27 -60 -29 -73
-29 -190 0 -69 2 -125 6 -125 13 0 123 82 159 119 30 32 47 41 72 41 l33 0 0
-85 0 -85 55 0 c54 0 55 1 90 48 38 51 105 202 105 234 0 21 3 21 248 16 179
-4 274 -2 347 8 l100 14 47 52 c43 47 48 58 48 100 l0 47 83 -28 c69 -24 105
-30 227 -36 80 -3 215 -14 300 -23 104 -11 188 -15 255 -11 137 9 496 9 518 1
15 -7 13 -13 -17 -57 -18 -28 -47 -57 -62 -64 -16 -7 -63 -36 -103 -63 -41
-28 -93 -57 -115 -64 -23 -6 -95 -48 -161 -93 l-119 -81 -66 0 -67 0 -30 -42
c-79 -112 -114 -195 -159 -373 -26 -102 -56 -256 -51 -262 13 -12 81 65 166
187 120 173 167 226 204 235 15 4 27 4 27 1 0 -19 -58 -117 -94 -161 -107
-129 -144 -184 -179 -273 -48 -119 -48 -132 -1 -132 27 0 50 11 92 43 31 24
83 58 114 76 31 17 73 51 93 74 l36 42 -4 -65 c-3 -44 -17 -102 -45 -178 -46
-124 -53 -187 -27 -249 l15 -36 36 47 c44 58 123 184 159 256 15 30 50 81 78
113 l51 58 14 -28 c13 -23 13 -43 3 -128 -6 -55 -11 -167 -11 -248 l0 -148 37
3 c36 3 37 4 69 87 19 48 42 137 54 210 25 146 62 237 109 270 52 37 158 176
176 231 l17 50 68 0 68 0 105 78 c58 42 153 103 212 135 84 46 113 68 138 104
30 41 35 44 69 41 31 -3 38 0 38 15 0 9 14 44 30 77 23 46 30 73 30 120 0 57
1 60 28 66 15 4 79 21 142 39 l115 32 38 -19 37 -18 0 32 c1 31 3 29 35 -34
24 -46 49 -78 82 -103 l48 -37 3 50 c3 50 4 51 47 65 42 15 44 15 66 -9 13
-14 46 -43 75 -64 63 -49 95 -51 169 -9 l55 31 0 -41 c0 -27 9 -55 24 -80 14
-21 26 -56 28 -77 l3 -39 29 70 c16 39 33 74 38 80 4 5 8 -42 8 -105 l1 -115
34 65 34 65 3 -85 3 -85 35 60 35 60 5 -100 5 -99 42 49 c35 41 43 58 43 90
l0 40 38 -44 c31 -38 38 -54 42 -105 l5 -61 34 80 c19 44 38 84 43 90 4 5 8
-25 8 -68 l0 -76 38 -26 37 -25 3 48 c2 39 9 55 32 77 l30 29 0 -37 c0 -51 47
-167 79 -194 l26 -23 5 62 c5 62 6 63 48 86 l42 23 0 -71 c0 -69 1 -71 23 -65
12 4 47 22 77 40 51 31 55 36 58 74 3 38 6 41 42 51 37 10 43 8 104 -30 40
-25 85 -66 119 -108 52 -64 58 -68 148 -101 52 -18 164 -67 249 -109 202 -98
340 -156 590 -252 174 -66 233 -95 392 -189 201 -118 456 -240 688 -328 119
-45 183 -62 355 -94 304 -57 413 -91 607 -193 102 -53 247 -116 388 -170 124
-46 419 -163 655 -260 454 -185 628 -270 1035 -510 359 -212 689 -502 988
-870 183 -226 253 -342 321 -530 l41 -113 0 -185 0 -185 -41 -94 c-65 -145
-208 -354 -353 -514 -118 -130 -136 -146 -258 -222 -207 -130 -355 -166 -441
-108 -42 29 -41 25 -23 160 13 94 17 106 73 200 32 55 91 147 129 205 114 170
179 301 244 495 55 160 59 181 49 212 -8 25 -23 40 -60 58 l-49 25 -77 -61
c-43 -34 -118 -89 -168 -122 -241 -161 -277 -191 -329 -279 -27 -46 -84 -130
-126 -188 -84 -114 -189 -312 -215 -406 -9 -32 -22 -117 -29 -187 -11 -117
-11 -139 7 -246 19 -114 21 -120 71 -186 28 -38 77 -91 108 -118 53 -46 64
-51 190 -83 116 -29 149 -34 258 -34 124 0 127 1 273 49 141 48 153 54 275
142 398 291 569 458 712 697 85 142 140 279 232 572 l48 155 0 249 0 250 -76
140 c-42 78 -117 204 -166 281 -48 77 -122 205 -163 285 l-74 145 -155 148
c-172 163 -272 248 -476 401 -180 136 -761 468 -987 565 -110 47 -208 99 -323
171 -506 317 -694 426 -835 482 -93 37 -210 97 -348 176 -114 66 -267 148
-340 182 -169 79 -333 179 -572 350 -104 75 -260 175 -345 224 -153 86 -156
88 -244 192 -48 57 -140 161 -203 231 -63 71 -126 142 -139 159 -13 17 -50
107 -83 200 -32 93 -79 219 -104 281 -25 62 -48 136 -52 165 -13 110 -37 246
-56 320 -10 42 -19 111 -19 155 0 43 -7 146 -15 228 -8 83 -15 243 -15 356 0
180 -3 221 -25 325 -40 196 -253 711 -480 1164 -56 113 -112 231 -125 262 -19
49 -34 67 -103 123 -45 37 -105 94 -134 128 l-52 62 47 5 47 5 -53 40 -53 40
68 5 68 5 -87 42 c-48 23 -97 44 -108 48 -29 9 -25 18 25 59 25 21 45 41 45
46 0 4 -38 23 -85 42 -47 18 -85 35 -85 38 0 3 34 19 75 35 78 31 79 33 69 84
l-6 31 -103 0 c-100 0 -103 1 -146 33 -85 64 -154 101 -199 107 l-45 5 44 30
45 30 -82 3 c-77 3 -82 4 -102 32 -20 28 -26 30 -81 30 l-59 0 0 42 c0 36 -7
48 -50 94 -27 29 -50 59 -50 66 0 7 -5 30 -11 51 l-10 37 -109 0 -110 0 0 55
0 55 -64 0 c-62 0 -66 1 -92 35 -21 28 -33 35 -60 35 -31 0 -33 2 -36 38 l-3
37 -95 5 -94 5 -12 40 -11 40 -129 5 -129 5 -5 40 -5 40 -107 5 c-96 5 -109 7
-134 30 -14 14 -33 40 -40 58 -14 31 -16 32 -72 32 l-57 0 -40 -60z"/>
</g>
</svg>
