<?xml version="1.0" standalone="no"?>
<!DOCTYPE svg PUBLIC "-//W3C//DTD SVG 20010904//EN"
 "http://www.w3.org/TR/2001/REC-SVG-20010904/DTD/svg10.dtd">
<svg version="1.0" xmlns="http://www.w3.org/2000/svg"
 width="1536.000000pt" height="476.000000pt" viewBox="0 0 1536.000000 476.000000"
 preserveAspectRatio="xMidYMid meet">
<metadata>
Created by potrace 1.16, written by Peter Selinger 2001-2019
</metadata>
<g transform="translate(0.000000,476.000000) scale(0.100000,-0.100000)"
fill="#000000" stroke="none">
<path d="M7667 4743 c-18 -21 -39 -119 -62 -288 -20 -150 -59 -383 -85 -509
-26 -129 -57 -409 -70 -646 -12 -211 -30 -343 -56 -405 -25 -62 -88 -148 -144
-198 -117 -105 -439 -228 -915 -347 -470 -119 -667 -144 -1100 -145 -400 0
-654 20 -1385 110 -480 59 -657 75 -809 75 -350 0 -973 -114 -1429 -262 -84
-27 -327 -119 -540 -205 -214 -86 -513 -197 -668 -248 -339 -112 -404 -142
-404 -185 0 -31 37 -51 120 -66 94 -16 114 -28 222 -132 l77 -74 105 41 c57
23 113 41 123 41 11 0 34 -16 53 -35 19 -19 41 -35 51 -35 9 0 54 25 100 55
93 60 119 66 179 35 53 -27 69 -26 163 16 125 55 131 56 172 28 20 -13 43 -24
51 -24 9 0 44 16 78 35 71 39 92 42 133 19 28 -16 30 -16 111 25 82 43 107 46
132 16 20 -24 49 -17 132 31 65 38 84 45 111 40 17 -4 46 -9 62 -12 17 -3 100
6 185 20 175 30 287 32 446 12 60 -8 159 -18 219 -21 143 -9 232 -27 368 -76
62 -22 202 -67 312 -100 110 -33 272 -84 360 -114 199 -68 440 -130 565 -147
116 -16 1196 -15 1390 0 69 6 238 29 375 51 157 25 315 44 425 51 188 11 240
19 300 50 36 19 39 19 44 2 97 -321 108 -400 77 -546 -25 -118 -22 -127 64
-181 72 -47 91 -74 121 -174 53 -181 111 -281 163 -281 12 0 38 12 57 26 31
24 37 26 59 14 13 -7 38 -28 56 -46 l32 -33 30 37 c44 55 73 124 108 258 33
128 50 156 109 180 87 37 106 85 83 218 -20 116 -13 194 26 319 17 54 36 127
42 163 6 35 15 64 20 64 5 0 32 -11 59 -25 59 -30 135 -41 370 -55 96 -6 216
-19 265 -29 268 -57 508 -73 1105 -74 747 -1 836 14 1627 274 631 207 716 223
1159 224 l301 0 54 -34 c46 -30 62 -35 107 -33 59 2 101 -12 165 -57 65 -45
90 -48 130 -17 19 14 39 26 46 26 7 0 39 -18 71 -41 60 -42 84 -45 110 -14 20
25 51 17 125 -31 58 -37 77 -44 109 -42 33 2 41 7 46 28 3 14 13 26 23 28 9 2
59 -22 111 -53 55 -33 111 -59 134 -62 35 -5 42 -2 57 21 27 40 60 34 170 -35
113 -71 178 -88 190 -49 4 12 4 38 0 57 -8 43 -11 44 130 -21 55 -25 110 -46
122 -46 32 0 66 48 59 84 l-6 29 52 -5 c65 -7 108 5 138 37 24 26 25 23 -8 87
-2 3 15 9 37 13 22 4 52 16 66 27 67 52 -5 104 -252 183 -352 112 -504 165
-839 293 -470 179 -791 279 -1244 386 -350 82 -409 89 -690 83 -310 -8 -585
-34 -840 -78 -63 -12 -162 -29 -220 -39 -309 -54 -1135 -95 -1440 -71 -177 14
-283 31 -512 82 -419 94 -791 206 -973 294 -142 68 -219 128 -308 240 l-73 91
-12 314 c-14 372 -32 555 -71 745 -16 77 -44 230 -61 340 -50 324 -79 445
-104 445 -7 0 -20 -8 -29 -17z m30 -4430 c-2 -16 -4 -5 -4 22 0 28 2 40 4 28
2 -13 2 -35 0 -50z"/>
</g>
</svg>
